<?xml version="1.0" encoding="utf-8"?>
<!-- Generator: Adobe Illustrator 19.2.1, SVG Export Plug-In . SVG Version: 6.00 Build 0)  -->
<svg version="1.1" id="layer" xmlns="http://www.w3.org/2000/svg" xmlns:xlink="http://www.w3.org/1999/xlink" x="0px" y="0px"
	 viewBox="0 0 652 652" style="enable-background:new 0 0 652 652;" xml:space="preserve">
<style type="text/css">
	.st0{fill:#FFFFFF;}
	.st1{fill:#218FCF;}
	.st2{fill-rule:evenodd;clip-rule:evenodd;fill:#218FCF;}
</style>
<g>
	<path class="st0" d="M320.7,77.8c135.2,0,244.7,109.1,244.7,244.5c0,134.8-109.5,244.4-244.7,244.4
		c-135.1,0-244.5-109.6-244.5-244.4C76.2,187,185.6,77.8,320.7,77.8"/>
	<path class="st1" d="M320.7,77.8v5c66.3,0,126.1,26.6,169.3,69.8c43.4,43.3,70.3,103.5,70.3,169.7c0,65.6-26.8,125.9-70.3,169
		c-43.3,43.6-103,70.4-169.3,70.4c-66,0-125.9-26.8-169.2-70.4C108,448.3,81.3,388,81.3,322.4c0-66.2,26.7-126.4,70.1-169.7
		c43.3-43.2,103.3-69.8,169.2-69.8V77.8v-5.7c-137.9,0-249.8,112.2-249.8,250.3c0,137.6,111.9,249.7,249.8,249.7
		c138,0,250.1-112.1,250.1-249.7c0-138.1-112-250.3-250.1-250.3V77.8z"/>
	<path class="st2" d="M320.7,159.4c89.9,0,162.8,72.7,162.8,163c0,89.6-72.9,162.7-162.8,162.7C230.8,485,158,412,158,322.4
		C158,232.1,230.8,159.4,320.7,159.4"/>
	<polygon class="st2" points="119.9,413.6 114.2,399.8 117.4,398.2 119.4,403.3 156.5,388 158.3,392.6 121.1,407.4 123.1,412.3 	"/>
	<polygon class="st2" points="112,393.4 110.3,389 129.1,383.1 127.1,376.4 108.3,381.8 106.9,377.7 148.6,364.9 149.9,369.4 
		130,375.8 132.1,382.1 152,376.5 153.3,380.6 	"/>
	<polygon class="st2" points="104.4,364.9 102.2,352.6 105.8,352.2 106.9,359.8 122.5,357.5 121.4,349.9 124.6,349.4 125.8,356.8 
		143.2,354.3 141.8,346 145.3,345.5 147.3,358 	"/>
	<path class="st2" d="M106.9,317.1h4.2l0.2,4.8l-4,0.3c-1.6,0-2.8,0.2-3.6,0.5l-0.9,2.4l1.1,1.9c0.6,0.6,2.1,0.8,4.6,0.8l27-0.5
		c2.2-0.3,4-0.3,4.7-0.6l1-2.5l-1.1-2c-0.6-0.3-1.9-0.6-3.6-0.6h-4.8v-5h5c3.1,0,4.8,0.5,6,1.9c1.1,0.9,1.6,3,1.6,5.6
		c0,2.8-0.5,4.9-1.9,5.5c-1.3,1.5-3.8,2.1-7.7,2.1l-25.6,0.5c-3.6,0.3-6.2-0.5-7.6-1.8c-1.3-0.9-1.9-2.8-2.3-5.5
		c-0.1-2.8,0.7-4.6,1.7-6.2C102,317.5,104,317.1,106.9,317.1"/>
	<polygon class="st2" points="100.6,306.7 101.2,302.2 120.4,304.6 121.5,297.3 102,294.9 102.4,290.5 145.8,295.7 145.2,300.2 
		124.7,297.5 123.7,305 144.4,307.4 143.9,311.8 	"/>
	<polygon class="st2" points="104,281.4 104.8,276.5 147.6,284.7 146.8,289.8 	"/>
	<polygon class="st2" points="107.5,265.9 109.2,260.1 150.6,264.9 111.3,253.6 112.4,249.5 154,262.5 152.3,268.3 111.6,264 
		150.1,274.8 149,278.9 	"/>
	<polygon class="st2" points="116.5,238.7 121.8,227.3 124.8,228.6 121.7,235.8 135.9,242.3 139.1,235.1 142,236.6 139.1,243.5 
		155.2,250.7 158.5,243 161.6,244.4 156.5,256.5 	"/>
	<path class="st2" d="M138.1,210.6l3.7,2.4l-2.1,3.9l-3.7-2c-1.6-0.9-2.5-1.1-3.5-1.1l-2,1.8l-0.1,2c0.7,1.1,1.6,1.7,3.2,2.5
		l1.9,0.8l2.4,1.3l3.1,0.3l10.4-1.3c1.6-0.4,3.4-0.4,4.6,0l3.9,1.6l2.6,1.3c3.2,1.5,5.2,3.5,5.9,5c0.5,1.9,0.1,3.9-1.3,6.6
		c-1.4,2.3-2.8,3.7-4.4,4.4c-1.4,0.7-3.5-0.3-5.9-1.6l-4.2-2.1l2.3-4.5l3.9,2.4c1.7,0.7,2.8,1.3,3.6,1.3l2-1.8l0.1-2.7
		c-0.3-0.8-1.7-1.4-3.5-2.5l-2.7-1.3l-2.8-1.7l-2.8-0.3l-11.2,1.5h-4.2l-2.9-1.2l-2.2-1.2c-3.1-1.6-4.8-3.3-5.4-4.8
		c-0.7-1.7-0.4-3.4,1.1-6.1c1.4-2.8,2.7-4.3,4.2-4.7C133.7,208.5,135.7,209.1,138.1,210.6"/>
	<polygon class="st2" points="137.3,199.9 144.4,189.5 147.3,191.5 142.8,198.2 155.8,207 160,200.8 162.8,202.5 158.5,208.9 
		172.9,219.1 177.4,212.3 180.3,214.4 173.1,224.7 	"/>
	<path class="st2" d="M161.3,169.7L161.3,169.7l4.5-4.4l36.4,24.7l-3.3,3.7l-9.8-7.1l-6.1,6.1l7.4,9.8l-3.3,3.3L161.3,169.7z
		 M165.6,169.7L181,190l5.2-4.9l-20.4-15.7L165.6,169.7z"/>
	<path class="st2" d="M192.6,151.3l2.7,3l-3.8,2.7l-2.5-3.1l-2.6-2.1l-2.6,0.6l-1.1,2.2l1.8,3.2l1.4,1.9l2.3,1.7l2.5,1.2l10.2,2.8
		c1.4,0.6,3,1.4,4.2,2.3l3.1,2.5l1.6,2.3c2.4,3.1,3.8,5.1,3.8,7.1c0,1.4-1.5,3.8-3.8,5.6c-1.9,1.5-4.1,2.5-5.5,2.5
		c-1.7-0.1-3.3-1.5-5.1-3.8l-3-3.9l3.6-2.8l2.8,3.2l2.8,3l2.6-1l1.1-2.4c0-0.4-0.9-2-2.5-3.8L205,174l-2.4-2.3l-2.2-1.4l-10.7-3.4
		c-1.4-0.4-2.8-0.8-3.8-1.4l-2.5-1.8l-1.5-1.6c-2.2-3.1-3.4-5.2-3.3-7.1c0.1-1.5,1.4-3.1,3.4-4.9c2.2-1.7,4-2.8,5.6-2.8
		C189.1,147.5,190.7,148.6,192.6,151.3"/>
	<path class="st2" d="M211,138.8l2.5,3.7l-4,2.3l-2.3-3.3l-2.4-2.7l-2.4,0.4l-1.2,2.3c0,0.8,0.4,1.9,1.3,3.3l1.4,1.6l1.8,2.1
		l2.6,1.8l9.6,4c1.7,0.6,3.2,1.3,4.2,2.2l2.6,2.9l1.6,2.6c2,3.2,2.9,5.8,2.6,7.1c-0.1,2-1.5,4.2-3.9,5.2c-2.6,1.7-4.4,2.5-5.8,2.3
		c-1.7-0.4-3.2-2.1-4.8-4.5l-2.8-4.1l4.1-2.6l2.4,3.6c1.2,2,2.1,2.6,2.6,3l2.4-0.4l1.6-2.6c0-0.4-0.7-1.9-2.1-3.9l-1.4-2.5l-2.1-2.4
		l-2.3-1.7l-10.2-4.2l-3.7-1.9l-1.9-2.1l-1.5-1.8c-1.8-2.9-2.7-5.1-2.5-7c0.1-2.1,1.4-3.4,4-4.6c2.1-1.9,4.2-2.5,5.7-2.2
		C208.2,135,209.5,136.4,211,138.8"/>
	<path class="st2" d="M230.2,130.6L230.2,130.6c-0.9-2.3-1.9-3.6-2.6-4.2l-3.1,0.4l-2,2.1c0,1.2,0.4,2.7,1.4,4.5l12,23.8
		c0.9,2.5,1.7,3.5,2.4,4.2l3.2-0.4l2-2.1c0.1-1.1-0.4-2.4-1.4-4.3L230.2,130.6z M234.8,128.9l11.2,23.1c1.7,2.9,2.1,5.5,1.8,7.4
		c-0.6,2.1-2.3,3.5-5,4.7c-2.7,1.4-5,1.7-6.5,1.1c-1.7-0.7-3.5-2.7-5.2-6.3L220,136.4c-1.9-3.7-2.2-6.3-1.9-7.8c0.4-1.8,2.3-3.3,5-5
		c2.9-1,4.9-1.3,6.7-1C231.4,123.2,233.1,125.3,234.8,128.9"/>
	<path class="st2" d="M258.2,117.7l1.3,4l-4.6,1.5l-1.2-3.4c-0.7-2.1-1.2-3.1-1.7-3.7h-2.5l-1.6,1.6c-0.1,1.3,0,2.7,0.9,4.8
		l8.8,25.8c0.7,2,1.5,3.6,2.1,4.1l2.6,0.2l1.4-1.5c0.5-0.8,0-2.1-0.4-3.8l-1.5-4.2l4.4-1.5l1.7,4.4c1.1,2.6,1.1,5.1,0.5,6.5
		c-0.8,1.1-2.4,2.3-5.3,3.2c-2.5,0.9-4.7,0.9-6,0c-1.8-0.9-2.9-3.2-4.2-6.6l-8.5-24.2c-0.9-3.5-1.4-6.1-0.7-7.6
		c0.5-2.1,2.1-2.9,4.8-3.8c2.8-1.1,4.7-1.5,6.3-0.7C256,113.6,257.2,114.9,258.2,117.7"/>
	<polygon class="st2" points="262.5,109.4 267.1,108.2 278.4,150.3 273.6,151.9 	"/>
	<path class="st2" d="M282.1,105.5L282.1,105.5l6.6-1.5l14,41.9l-4.8,0.5l-3.5-11.1l-8.4,1.4v11.9l-4.8,0.8L282.1,105.5z M285.7,108
		l0.1,25.4l7.4-1.7l-7.1-23.7H285.7z"/>
	<polygon class="st2" points="299.6,102.7 314.7,101.7 315,105.3 309.6,105.8 312.4,145.5 307.9,145.6 305,105.8 299.7,106.2 	"/>
	<polygon class="st2" points="321.6,101.7 326.2,101.7 325.4,145.5 320.6,145.5 	"/>
	<path class="st2" d="M347.5,111.9L347.5,111.9c0.2-2.4,0.1-3.7-0.2-4.6l-2.5-1.5l-3.1,0.9c-0.5,0.6-1,2.2-1.3,4.4l-3.3,26.5
		c0,2.3,0,3.9,0.3,4.9l2.6,1.3l3-0.7c0.5-0.5,0.9-2.2,1.2-4.5L347.5,111.9z M352.1,113l-3,25.5c-0.4,4-1.4,6.3-2.9,7.4
		c-1.2,1.3-3.4,1.3-6.7,1.3c-2.8-0.6-5-1.6-6-2.7c-1-1.5-1.2-4.6-0.7-7.9l3-25.5c0.4-3.6,1.3-5.8,2.6-7.4c1.4-1.1,3.7-1.4,6.7-1.4
		c3,0.7,5.1,1.4,6,3.3C352.3,106.7,352.6,109.1,352.1,113"/>
	<polygon class="st2" points="364.9,106.2 370.8,107.6 368.2,149 377.4,109.1 381.4,110.2 370.9,152.4 364.9,151.1 367.4,109.6 
		367.3,109.6 358.2,149.4 354.3,148.5 	"/>
	<path class="st2" d="M410.9,130.2L410.9,130.2c1-1.8,1.4-3.8,1.3-4.4l-2.1-2.6H407c-0.7,0.6-1.5,2.1-2.6,4.1l-10.8,24.7
		c-0.9,1.9-1.4,3.2-1.2,4.5l1.9,2h3.2c0.5-0.6,1.3-1.7,2.5-3.8L410.9,130.2z M415,132.7l-10.6,23.5c-1.4,3.2-2.9,5.6-4.7,6.3
		c-1.7,0.8-3.7,0.5-6.6-1c-2.8-1.3-4.6-3-5.1-4.5c-0.6-1.7-0.1-4.4,1.5-7.6l10.5-23.1c1.4-3.7,3.1-5.8,4.6-6.4c1.7-0.5,4-0.5,7,0.6
		c2.6,1.3,4.2,2.8,4.8,4.7C417.1,126.8,416.4,129.4,415,132.7"/>
	<polygon class="st2" points="429,130.2 439.4,136.7 437.6,139.2 431.1,135.3 423,148.9 429.3,152.6 427.5,155.6 421.2,152.1 
		410.5,169.7 406.6,167.8 	"/>
	<path class="st2" d="M455.8,147.5L455.8,147.5l5.4,4.6c2.9,2.5,4.3,4,4.7,5.4c0.5,1.4,0,3.3-1.5,5l-6.2,7.2l-3.5,2.5
		c-1,0-2.4-0.5-4.3-1.9c1.8,1.4,2.7,3.2,2.8,4c0.1,1.4-0.2,2.5-1.5,3.7l-11.3,13.9l-3.6-3.5l10.3-12.1c1.4-1.7,2-2.8,1.8-3.6
		c-0.1-1.5-1.1-2.3-2.6-3.9l-1.6-0.7l-13.3,16.2l-3.5-3.3L455.8,147.5z M457.4,153.1l-10.5,12.3l1.4,1c1.6,1.4,2.9,2,3.7,2
		c0.9,0,2.2-0.6,3.3-2.7l3.9-4.7c1.4-1.3,1.9-3.2,1.9-3.8c-0.2-0.7-0.9-2-2.7-3.3L457.4,153.1z"/>
	<polygon class="st2" points="476.1,165.5 484.8,174.9 482.4,177.2 477,171 465.5,182.5 470.8,188 468.4,190 463,185 450.4,196.9 
		456,202.5 453.5,205.1 444.7,195.9 	"/>
	<polygon class="st2" points="490.4,181 498.1,190.5 495.3,193.1 490.5,187 478.4,196.9 482.9,202.4 480.1,204.8 475.8,199.2 
		459.3,212.3 456.7,208.6 	"/>
	<path class="st2" d="M503.5,198.7L503.5,198.7l3.6,5.8c1.9,3.1,2.8,5,2.6,6.5c0,1.7-1,2.8-2.6,4.4l-8.5,4.8
		c-1.3,1.2-2.8,1.3-3.9,1.2c-0.9-0.4-1.9-1.4-3.3-2.9c1.1,1.8,1.5,3.4,1.4,4.6c-0.2,1.3-1.1,1.9-2.8,3.5l-14.9,8.9l-2.3-4.1
		l13.7-8.4c1.8-1.5,2.6-2.2,2.8-3.3c0.1-0.5-0.5-2.1-1.5-3.6l-0.9-2l-18.1,11.5l-2.1-4.1L503.5,198.7z M503.3,204.2l-13.7,8.5
		l0.8,1.1c1.2,2.3,2.2,3.1,3.1,3.1c0.8,0.3,2.2,0,4-0.9l4.9-3.4c1.9-1.3,2.8-2.2,3-3.2c0.1-0.9-0.3-1.9-1.4-4.1L503.3,204.2z"/>
	<polygon class="st2" points="517.2,221.9 519.3,226.5 480,244.9 478.1,241 	"/>
	<path class="st2" d="M521.3,253.6l-2,1l-1.8-4.2l2.5-1.4c2.2-0.7,3.3-1.3,4-2.4l0.1-3.1l-2.1-2c-0.9,0-2.4,0.3-4.4,0.9l-25,9.3
		c-2.4,1.2-3.7,1.8-4.2,2.9v3.5l0.5,1.2l1,1.4l14.5-5.4l-1.6-3.5l3-1.3l3.1,8.4l-19.2,7l-2.5-3.4l-1.8-3.5c-1.1-2.9-1.3-5.4-0.5-7.2
		c1-1.3,2.9-3.2,6.5-4.1l24.2-9.6c3.4-1.5,5.8-1.5,7.5-1.1c2,0.6,3.2,2.5,4.2,5.5c1.3,2.7,1.3,5.4,0.8,6.7
		C526.8,250.7,524.8,252.3,521.3,253.6"/>
	<polygon class="st2" points="532.5,261 535.7,273.3 532.5,273.9 530.2,265.9 515.3,270.7 517.1,277.4 514,278.5 511.8,271.1 
		494.9,275.6 497.3,283.9 493.8,284.7 490.4,272.3 	"/>
	<path class="st2" d="M537.9,283.3L537.9,283.3l1,7.2c0.4,2.9,0.4,5.5-0.3,7.1c-0.6,1.2-1.9,2-4.3,2.3l-9.4,1.9c-2.1,0-3.3,0-4-1.1
		c-1.1-0.9-1.6-1.9-2.1-4.1c0.2,2.2,0,3.6-0.6,5.2c-0.7,0.4-1.9,1.1-3.8,1.4l-17.2,2.5l-0.9-4.3l16.1-2.5c2-0.2,3.2-0.9,3.9-1.5
		c0.5-0.9,0.6-2.4,0.2-4.8l-0.2-1.6l-21,2.8l-0.6-4.2L537.9,283.3z M535.3,288l-15.6,2.5l0.1,1.5c0.1,2,0.9,3.7,1.5,4
		c0.7,0.6,1.9,0.9,4.2,0.6l6-0.9c2,0,3.4-0.8,3.8-1.8c0.4-0.6,0.5-2,0.2-4.1L535.3,288z"/>
	<path class="st2" d="M541.1,315.6L541.1,315.6l0.1,6.8l-43.2,8.2v-4.8l11.7-1.9l-0.1-8.6l-11.8-1.5l-0.2-5L541.1,315.6z
		 M538.1,318.8l-25.2-3.2l0.1,7.5L538.1,318.8z"/>
	<polygon class="st2" points="541.1,334 539.7,349.8 536.4,349 536.9,344.1 496.8,340.1 497.4,335.8 537,338.9 537.6,333.8 	"/>
	<polygon class="st2" points="538.8,355.2 538.1,359.7 495,352.7 495.8,348.5 	"/>
	<path class="st2" d="M525.2,379.3L525.2,379.3c1.9,0.6,3.7,0.6,4.5,0.6l1.8-2.4l-0.4-2.6c-0.5-1.3-1.9-1.6-4.3-2.3l-25.9-7
		c-2.3-0.5-3.5-0.5-4.6-0.3l-1.9,2.3l0.3,3c0.6,0.7,2.1,1.3,4.3,1.7L525.2,379.3z M523.2,384.1l-24.8-6.6c-3.7-0.9-5.9-2.4-6.9-4.2
		c-1.1-1.2-1.1-3.4-0.1-6.6c0.8-2.7,1.7-4.5,3.4-5.8c1.7-0.7,4.2-0.7,7.8,0.3l25.1,7c3.4,1.1,5.6,2.1,6.7,3.6c0.9,1.1,1,4,0.3,6.3
		c-0.8,3.1-2.1,5-3.6,6C529.4,385.1,526.8,384.7,523.2,384.1"/>
	<polygon class="st2" points="528.2,397.5 526,403.3 485.2,394.9 523.2,409.3 521.9,413.4 481.4,397 483.8,391.4 523.9,399.8 
		524,399.8 486.4,384.7 487.8,381.2 	"/>
	<path class="st2" d="M174.3,462L174.3,462l9.8,9.6l9.9-9.6l-9.8-10L174.3,462z M161,448.5L161,448.5l9.7,9.7l9.7-9.4l-10-10.3
		L161,448.5z M150.9,450.9l3-2.6l2-2.2l11.2-11l1.8-1.9l1.4-1.9c1.9,2.5,3.4,3.8,4,4.6l9.6,9.2l2-1.6l0.8-1l1.8-2.3l3.2-3.7l2.2,2.4
		l2,2c-1.5,1.6-2.8,2.9-3.9,3.7l-2.2,1.8l-2.4,2.8l9.3,9c0.8,0.6,2.1,1.9,4.7,4.2l-2.1,2l-1.7,1.2l-11,11.3l-2.2,2.1l-2.2,2.3
		l-1.9-2l-2.4-1.8l0.6-0.6l0.9-0.7l1.2-1.3l-9.5-9.6l-8.9,9l-1.9,2l-3.3,3.3c-1.1-1.4-2.5-2.7-4.2-4.1c1.5-1.2,2.8-2.2,3.7-2.9
		l2.2-2.3l8.6-8.7l-9.9-10l-1.8,1.9l-0.9,1.6l-2-2.5L150.9,450.9z"/>
	<path class="st2" d="M203.9,505.2L203.9,505.2l30.7,17.7l18.9-32.8l-30.9-17.5L203.9,505.2z M195.2,509.7L195.2,509.7
		c0.9-1.6,1.8-2.9,2.8-4l1.9-3.2l16.5-28.2c0.3-0.8,1.1-2.6,1.9-4.4l2.4-4.3c2.5,1.8,4.4,2.8,5.2,4l29,16.5c1.2,0.6,3,1.5,5.7,2.5
		c-1.4,2.1-2.3,3.3-3.1,4.5l-2.2,3.4L239,525.3c-1.1,1.6-1.8,3.1-2.5,4.6l-1.9,3.5c-1.6-1-3-2.2-4.8-2.4l1.3-1.9l1.2-2.1l-30.7-17.8
		l-0.8,1.2l-1,2.3l-1.9-1.2C197.8,511.1,196.7,510.3,195.2,509.7 M207.5,502.7l1.2-2l1.3-2.2c1.6,1.3,3.2,2,4.5,2.7l6.2,4l4.9-8.8
		l-4.2-2.2c-1-0.8-2.6-1.5-4.2-2.3l0.9-1.2l0.3-0.8l1.4-2.4c1.8,1.8,3,2.6,3.8,3.1l4.2,2.3l3.1-5.7l-3.8-1.9
		c-1.2-0.9-2.9-1.7-5.4-2.7l0.9-1.5l0.4-0.7l1.2-2.2c2,1.2,3.8,2.5,5.3,3.2l12.4,7.3c0.4,0.4,2.5,1.3,6.1,3l-1,1.5l-0.5,0.8
		l-1.1,1.8c-2.2-1.4-4-2.4-5.7-3.2l-4.6-3l-3.3,5.7l4.6,2.8c0.9,0.6,2.4,1.3,4.8,2.2l-1.1,1.2l-0.6,1.2l-0.1,0.3l-0.9,1.9
		c-1.7-1.9-3.3-3-4.3-3.4l-4.3-2.3l-4.7,8.1l5,3.2c0.2-1.9,0.2-3.7,0.2-5.4l-0.2-2.5c1.6,0.3,3.2,0.3,5,0.3l0.2,8.4
		c-1.6,0-2.9-0.5-4.4-0.5l0.8,0.5c0.9,0.9,2.7,1.8,5.4,2.8l-1.1,1.6l-0.5,0.5l-1.1,2.3c-1.8-1.2-3.2-2.3-4.5-2.8l-17.2-9.8
		C211.2,504.6,209.5,503.6,207.5,502.7"/>
	<path class="st2" d="M299.6,540.7L299.6,540.7c2.8,0.6,4.4,0.9,4.5,0.9c1.7,0.2,2.7-0.1,2.7-1.5l3.7-33.9c0-0.9,0.3-2.5,0.3-5.1
		l0.3-5.8c1.4,0.6,3.4,0.6,5.9,0.6c-0.5,3-0.7,4.8-1,6.7c-0.2,1.9-0.3,3.2-0.5,3.8l-3.7,36.1l-1.2,3.1l-2.5,1.4h-2.6h-2.5l-2.2,0.3
		v-2C300.5,544.2,300.3,542.6,299.6,540.7 M297.7,534.9L297.7,534.9l0.5-3.1l0.4-2l2.3-22.3l0.2-1.9l0.3-4c0.9,0.8,2.9,0.8,5.2,1
		c-0.4,1.7-0.7,3-0.8,3.4l-0.2,2.3l-2.4,21.8l-0.2,2.3v2.6c-1.3-0.3-2.3-0.3-2.7-0.3H297.7z M266.3,509.1c1.6,0.3,3.1,0.6,4.8,0.6
		l9.6,1.4l0.6-5.8l-7.4-0.9l-1.2,1.8l-0.9,1.4l-0.7,0.9c-1.4-0.9-2.9-1.6-4.7-2.3l1.5-1.1c0.6-0.7,1.3-2.4,2.4-3.8
		c1.2-1.5,2-2.8,2.6-4.8l0.9-2.3c1.5,0.6,3,1.5,4.7,1.9l-1,1.4L277,499l-0.7,1.1l5.6,0.5l0.2-2.1l0.2-2.8l0.1-3.6l2.3,0.6h2.9
		c-0.4,1.5-0.7,2.4-0.7,3c0,0.4-0.2,1.8-0.3,3l-0.2,2.2l7.1,0.7h1.4h2.5l-0.5,2l-0.1,1v2.2l-2.3-0.4l-1.4-0.3l-7-0.6l-0.8,5.8
		l7.8,1.2c1.6,0,3.3,0.1,5,0l-0.4,1.6l-0.1,1.1v0.6l0.1,1.4c-1.8-0.3-3.5-0.3-4.9-0.7l-7.9-0.9l-0.4,5.6l7.4,0.7h4l-0.7,2.4
		l-0.1,1.3l-1.2,11.4l-0.6,1.2l-1.4,1c-0.8,0.8-2.7,1-6,1.2l-0.4-2.3c0-0.7-0.3-1.7-0.9-3.5c1.7,0.3,2.8,0.6,3.6,0.6l1.6-0.6
		l0.8-8.4l-6.5-0.9l-1.4,12.9c-0.1,0.5-0.1,1.5-0.1,3.1l-0.3,4.2l-2.6-1h-2.6c0.3-1.9,0.6-3,0.8-3.8l0.3-3.2l1.3-12.4l-6.7-0.7
		l-1.1,10.3c-0.1,0.6-0.1,2.2-0.1,4c-1.6-0.4-3.2-0.4-5-0.4c0.4-1.8,0.5-3.3,0.8-4.4l1.3-10.9v-1.7V519c1.3,0.6,2.8,0.8,4.2,0.8
		l7.2,0.9l0.7-5.3l-9.9-1c-1.3-0.2-3-0.2-4.6-0.2l0.2-1.6v-1.2l0.1-0.8L266.3,509.1z"/>
	<path class="st2" d="M352.5,511.4L352.5,511.4c1.2,0,2.9-1.1,5.2-2.1l4.4,8.4c-2.1,0.5-4,1.2-5.4,2.6l-0.4-1.8l-1.3-3l-1.8-2.6
		L352.5,511.4z M342.8,527.8L342.8,527.8v-2.5c0-0.2-0.2-0.9-0.5-2.8c2.6,0,4.3-0.3,5.9-0.3l20.5-1.9c2-0.6,4.3-0.6,7.2-1.4
		c-3.6,6.1-8,12.1-13,19.7l5.8,4.8c-2.2,2-3.7,3.4-4.8,4.6l-1.5-2c-1.1-1.3-3.1-3.4-5.8-5.4c-2.9-2.5-5.1-4.2-6.6-5.5l-1.4-1
		c1.3-0.9,2.6-2.3,3.7-4.2l7,5.5c2.4-3.5,4.7-6.6,6.7-10.5l-17,1.8C348.2,526.9,346.3,527.2,342.8,527.8 M335.6,519.2L335.6,519.2
		l0.8-0.3c0.7-0.5,1.8-1.4,3.6-3.1c2.1-1.7,3.6-3.4,5.2-5.9c1.4-1.9,2.7-4.4,3.9-7.6c1.2-2.8,1.8-5.2,1.9-7.3l0.2-1.5
		c2.4,0.6,4.4,0.7,6.3,0.6l-0.4,1.5c3.3,4.1,6.2,7,8.5,9.2c2.3,1.7,4.6,3.2,6.9,4.4c2.4,0.7,4,1.2,5.5,1.7h1.2
		c-2,1.9-2.9,3.3-3.4,4.5l-0.7,1.8l-1.1-0.3c-3.1-1.9-5.8-3.4-7.9-5c-2.2-1.7-4.1-2.9-5.5-4.8c-1.6-1.5-3.3-4.2-5.5-7
		c-1.3,4.8-2.7,8-4,9.9c-1.2,2.6-2.8,4.8-4.5,7c-1.6,1.8-3.4,3.7-5,5.2l-0.5,0.3l-1.6-1.4C339,520.7,337.6,519.8,335.6,519.2
		 M326.3,504.1L326.3,504.1c1.8-1.7,2.7-2.4,2.7-2.6l1.3-1.7l9.7,9.9c-1.8,0.9-2.9,2.3-3.5,3.3l-0.8,1.3l-1.5-1.6
		c-0.8-1.6-1.8-3-3.3-4.2c-1.3-1.8-2.5-2.8-3.5-3.4L326.3,504.1z M327.1,540.7l0.5-1.4c1.1-1.9,1.9-3.8,2.5-5.4
		c0.5-1.5,1.2-3.8,2-6.1c0.9-2.7,1.1-5.1,1.2-6.5l0.2-2.1l2.1,2.1c0.4,0.5,1.5,0.9,3.2,1.6l-0.6,1.4c0,0.3-0.7,1.9-1.4,5
		c-1,2.6-1.8,5.6-2.6,8.1c-0.6,2.7-1,4.6-1.1,6.1l-0.2,2l-1.9-2C330.5,542.6,329.3,542,327.1,540.7"/>
	<path class="st2" d="M402.2,479L402.2,479l7.7,6.3c-1.5,0.9-2.9,2.2-3.9,3.2l-1.3-1l-2.5-1.7l-2.9-2.6l-1.1-0.3
		C399.7,481.3,401,480.3,402.2,479 M387.8,493.3L387.8,493.3c1.1-1.7,2-2.9,2.7-4.7l9.2,3.9l-1.8,1.8l-1.4,2.9l-1.7-1.5l-2.1-1
		l-3.1-1.1L387.8,493.3z M393.2,513.9L393.2,513.9c-0.8-1.9-1.5-3.3-1.9-3.9l-2.2-3.8c-0.1-0.5-1-1.2-2.1-3.3
		c2.8-1.3,4.6-2.2,5.6-2.9l22.1-13.2c0.4-4,0.2-8.2-0.5-12.6l-0.4-2.2c2,0.1,4,0.1,5.7,0l0,1.8l-0.1,2.3l-0.1,4.1l-0.1,4.1l6.2-3.8
		c0.8-0.4,2.5-1.6,5.1-3.1l0.9,1.8l0.7,1.7l2.2,3.8l0.6,1l1.4,1.1c-1.8,0.6-3.1,1.7-4.9,3l-0.7-1.7l-0.6-1l-1.7-3.1l-34.4,21
		l1.9,2.5l0.8,1.6l1.3,1.5l-1.4,0.8C395.8,511.7,394.7,512.6,393.2,513.9 M400.7,527.8l-1.3-3.2l-0.7-0.5l-1.1-1.6
		c3.1-1.2,5.3-2.7,6.8-3.7l14.4-8.8l-0.6-0.6l-0.1-0.3l-0.5-0.7l-1.3-1.8l0.8-0.8c1.1-0.9,2.4-3.1,4.4-6l-12.5,7.4
		c-0.7,0.4-3,2.2-6.9,4.5l-0.5-1.3l-0.7-1l-0.3-0.6l-1.1-1.6c3.9-1.5,6.3-2.8,7.2-3.5l15.1-9.3c1.8-0.9,3.7-2.2,5.7-3.7l1,1.5
		l0.6,0.9l0.6,0.9l1,1.2l-1.6,1.3c-1.7,1.9-3.6,4.1-6.1,8.2l-0.9,1.4l0.9,1.2l11.6-6.8c2-0.7,4.3-2.4,7.5-4.6l0.7,1.8l0.6,1.2
		l1.6,1.6c-4.7,2.4-7.3,4.3-7.7,4.6l-11.8,6.8l5,8.6l0.8,2.4c0.2,1.1-2.1,3.3-6.5,6.8l-0.8-1.1l-1.3-1.2c-0.5-0.3-1.6-1-3.3-1.6
		l1-0.6l2.4-1.2l2.1-1.6V521l-1.5-2.7l-2.1-3.8l-14.3,8.5C406.4,523.3,404.2,524.6,400.7,527.8"/>
	<path class="st2" d="M456,480.6L456,480.6l3.3-2.9l2.3-2l21-20.9c0.2-0.5,2.3-2.6,5.7-6.3l0.9,1.3l0.8,0.7l0.8,0.6l1.6,0.8
		c-2.9,2.9-5.1,4.6-6.5,5.8L474,469.9l3.9-0.3l-0.7,2.5c0,1.2-0.1,2.8-0.2,4.8c-0.1,2.1-0.5,4.4-0.9,7l-0.2,1.9
		c4.5-4.8,9.6-10.3,14.6-16.2h-4.9l-2.7,0.3c0.5-2.2,1.1-3.3,1.1-5.3h18.8c-0.6,2-1.3,4.1-1.5,6.5l-1.5-0.3l-2-0.6l-2-0.3l-6.6,7.6
		c-5.5,6.3-9.1,10-10.2,11.8c-1.2,1.9-2.4,3.2-3.4,4.9l-1.9-0.9c-0.6-0.5-1.6-1.1-3.6-1.7c0.8-1.7,1.3-3.4,1.9-5.8
		c0.7-2.6,0.6-7.1-0.3-13.6l-6.8,6.8c-1.3,1.2-3.1,3-5.2,5.8l-1.2-1.6l-0.6-0.6l-0.6-0.8L456,480.6z M446.7,477.5l0.5-1.5
		c2.4-4.4,3.2-9.5,3.8-15.4c0.3-5.8-0.2-10.8-1.2-14.9l-0.8-1.9c2.3-0.5,4.2-1.5,6.2-2l0.1,1.6c3.2,0.6,7.1,0.8,12.1,0.5
		c5.5-0.5,10.6-2,15.7-5.9l1-0.8v3.2c0.2,1.4,0.6,2.3,1.3,3.8l-1.7,0.4c-5.8,2.2-10.5,3.5-13.8,3.8c-3.2,0.3-6,0.6-8.2,0.3
		c-2-0.3-4.1-0.6-6.4-1c0.3,3.9,0.4,7.3,0.4,9.8c0,2.7-0.1,5.4-0.5,9.2c1.6-1.3,3-2.5,4.1-4.1l11.1-11c0.8-0.6,2.3-1.9,3.9-3.8
		l0.8,1.1l0.9,1.1l2.1,1.3c-1.9,1.3-3.5,3-4.2,4l-11.2,10.7c-1.2,1.2-2.3,2.5-3.9,4.7l-0.8-1.9l-0.7-0.6l-0.6-0.7l-1.4-0.8
		c-0.3,1.8-0.5,4-0.9,6.1c-0.5,1.5-0.7,2.8-0.7,3.1l-0.1,1.5C451.7,476.9,449.6,476.9,446.7,477.5"/>
	<path class="st0" d="M307.8,244.4L307.8,244.4l2.5,2.5l-18.6,20.7l7.3,12.5l22.6-26.6l22.3,26.6l7.4-12.8l-18.3-20.7l2.5-2.5
		l17.8,20.1l6.2-11.2l-12.9-14.3l2.5-2.5l12.2,13.8l9.5-16.3l-2.8-18.1l28.5-22.9l-5.9,35.9l-16.6,6.5l-9.5,16.6l18.1,4.1l-0.7,3.4
		l-19.3-4l-6.3,10.6l26.1,5.7l-0.6,3.5l-27.4-5.9l-7.4,12.9l34.1,5.9l-11.9,32.9h15.5l8.6-26.3l3.5,1.4l-8.5,24.9h12.9l6-18.4
		l3.3,0.7l-5.7,17.7h18.7l14.2-11.4l34,13.2l-34,12.8l-14.1-10.8h-19l5.8,17.6l-3.2,1.6l-6.3-19.2h-12.8l8.4,25.3l-3.4,0.8
		l-8.6-26.1h-15.2l11.8,32.4l-34.4,6.5l7.7,13.2l27.4-6.2l0.6,3.2l-26.1,6l6.3,11.2l19.3-4l0.6,3.2l-18.1,3.6l9.5,16.5l16.6,7.2
		l5.9,35.2l-28.5-22.2l2.8-18.2l-9.5-16.5l-12.2,13.7l-2.5-2l12.9-14.4l-6.2-11.2l-17.8,19.4l-2.6-2l18.3-20.9l-7.7-13.3L321.6,392
		l-22.5-26.8l-7.4,12.9l18.6,21.2l-2.5,2l-17.9-19.8l-6.3,11.1l13.1,14.9l-2.5,1.9l-12.3-13.8l-9.6,16.7l2.5,17.9l-28.2,22.5
		l5.3-35.4l17.2-6.9l9.3-16.5l-17.7-3.6l0.5-3.2l19.3,4l6.2-11.4l-25.9-5.8l0.8-3.2l27,6.2l7.6-13.2l-34.3-6.5l11.6-32.4h-14.6
		l-8.9,26.1l-3.2-0.8l8.1-25.3h-12.7l-5.9,19.2l-3.3-1.6l5.7-17.6h-18.9l-14.4,10.8l-33.8-12.8l33.8-13.2l14.4,11.4h18.6l-5.7-17.7
		l3.7-0.7l5.8,18.4h12.7l-8.2-24.9l3.3-1.4l8.7,26.3h14.9L261.8,288l34.2-5.9l-7.5-12.3l-27.2,5l-0.7-3.2l25.9-5.7l-6.2-10.6
		l-19.4,4l-0.4-3.4l17.7-4.1l-9.3-16.3l-17.2-6.4l-5.3-35.9l28.2,23l-2.5,17.6l9.6,16.3l12.3-13.4l2.5,2.1L283.3,253l6.5,11.4
		L307.8,244.4z M321.6,326.7L321.6,326.7l-20.1,34.5l20.1,24.5l20-24.5L321.6,326.7z M318.1,320.9L318.1,320.9l-20.4-35.2l-30.9,5.5
		l10.9,29.7H318.1z M301.2,284.2L301.2,284.2l20.4,34.9l20.1-34.9l-20.1-24.4L301.2,284.2z M324.5,324.7L324.5,324.7l20.4,35
		l31.2-5.4l-10.8-29.6H324.5z M318.4,324.7L318.4,324.7h-40.6l-10.9,29.6l31.2,5.4L318.4,324.7z M345.1,285.7l-20.4,35.2h40.4
		l11-29.7L345.1,285.7z"/>
</g>
</svg>
